PathFileType	4	(X/Y/Z)	C:\Users\chris\Documents\GitHub\baseballds\vids\pitch5_Sports2D\pitch5_Sports2D_m_person03.trc
DataRate	CameraRate	NumFrames	NumMarkers	Units	OrigDataRate	OrigDataStartFrame	OrigNumFrames
30	30	10	22	m	30	74	149
Frame#	Time	Hip			RHip			RKnee			RAnkle			RBigToe			RSmallToe			RHeel			LHip			LKnee			LAnkle			LBigToe			LSmallToe			LHeel			Neck			Head			Nose			RShoulder			RElbow			RWrist			LShoulder			LElbow			LWrist		
		X1	Y1	Z1	X2	Y2	Z2	X3	Y3	Z3	X4	Y4	Z4	X5	Y5	Z5	X6	Y6	Z6	X7	Y7	Z7	X8	Y8	Z8	X9	Y9	Z9	X10	Y10	Z10	X11	Y11	Z11	X12	Y12	Z12	X13	Y13	Z13	X14	Y14	Z14	X15	Y15	Z15	X16	Y16	Z16	X17	Y17	Z17	X18	Y18	Z18	X19	Y19	Z19	X20	Y20	Z20	X21	Y21	Z21	X22	Y22	Z22
74	2.466666666666667	3.16742322707793	1.30335282572227	0.0	3.16480313785408	1.3019623824959448	0.0	3.1678485942213217	1.2721531797954078	0.0	3.1740759084620387	1.2426865514931098	0.0	3.159664213985106	1.2354557067764664	0.0	3.15999372214246	1.2374775979656896	0.0	3.1779270847238927	1.2391650224901474	0.0	3.1696282315517568	1.302261235165777	0.0	3.171461498175968	1.2712179592043868	0.0	3.176301140632772	1.241643388604557	0.0	3.1644220092404227	1.2345209944774467	0.0	3.1663224454390853	1.2351544173171844	0.0	3.1814262871110097	1.2389677932198198	0.0	3.1656608467495824	1.347476542680918	0.0	3.1602686070694355	1.36767535589264	0.0	3.1564890113601805	1.3543388611528249	0.0	3.165335498390594	1.341141924074893	0.0	3.1663245567219054	1.3223819902434162	0.0	3.163136304010094	1.299524594726231	0.0	3.168611085462708	1.3416922541542518	0.0	3.1711815842380893	1.321259962057045	0.0	3.1666336706648233	1.2980518131100862	0.0
75	2.5	3.167704576584965	1.3021701569856134	0.0	3.1650186729399348	1.3009369702293525	0.0	3.1683873820691684	1.2713243790947293	0.0	3.174541540105177	1.2421087253538217	0.0	3.1600538422319153	1.2349153028743596	0.0	3.1603661170694015	1.2371204828103952	0.0	3.1785950410405954	1.2383471268894635	0.0	3.169897425154204	1.3011993293587463	0.0	3.171959977542552	1.2704859708897909	0.0	3.176864031957922	1.2409536661637777	0.0	3.1651875327655437	1.2339454445522322	0.0	3.1666369674206667	1.2346990177444417	0.0	3.1819053828520976	1.2381691525665708	0.0	3.165658899626196	1.3449660191245159	0.0	3.159683909532377	1.3658348478177422	0.0	3.1565987260486437	1.3521858902482307	0.0	3.1652416120560893	1.3387670779828325	0.0	3.1666125773352176	1.3208584229745077	0.0	3.164067512361516	1.2988290255973625	0.0	3.168786321877116	1.339390118699971	0.0	3.1718039148481236	1.3200941727935323	0.0	3.167052985474028	1.2976205079818897	0.0
76	2.533333333333333	3.1681383442158957	1.300792583224358	0.0	3.1657956125527913	1.2998137457439884	0.0	3.1694225632836575	1.2706611934909477	0.0	3.175313723253423	1.2416270487967591	0.0	3.16078861347294	1.2344385147907853	0.0	3.160620676014192	1.2364946753321908	0.0	3.179417106978731	1.2375147084366007	0.0	3.1701424069806574	1.300002335901278	0.0	3.1720641330144157	1.270046114075814	0.0	3.177106176780835	1.2404196401664793	0.0	3.1651494463535625	1.2335920178748918	0.0	3.166607690833472	1.2347365835240147	0.0	3.182115197421959	1.2376376328995549	0.0	3.1657102553944187	1.342659266089772	0.0	3.1593315680489993	1.3640017718726105	0.0	3.156750421175504	1.3502794947673125	0.0	3.165668038920811	1.336533527115402	0.0	3.1674762474255833	1.3191645314074056	0.0	3.1657509777281074	1.2978256321112887	0.0	3.1686325168185365	1.3374871736358613	0.0	3.172553031836277	1.3189210242769016	0.0	3.167498678791282	1.2969586292525674	0.0
77	2.5666666666666664	3.168793099692166	1.2998917925307119	0.0	3.1667655603127884	1.2990156582758476	0.0	3.170883072582085	1.270460441401388	0.0	3.1765013369831108	1.2412414444665	0.0	3.1621893914804535	1.2339279032992827	0.0	3.160742103624126	1.2357768884387172	0.0	3.1803273025628704	1.2368445708180744	0.0	3.1707576569505718	1.2991899519115544	0.0	3.1718929980831283	1.2700412679654827	0.0	3.177039208038541	1.2401555165066656	0.0	3.164229665631877	1.2336254579882442	0.0	3.1664876137564266	1.2351520666245066	0.0	3.182150535406908	1.2376126768094833	0.0	3.1659135637877576	1.3417584366108055	0.0	3.1594820768583127	1.3629982651352095	0.0	3.1570178738335937	1.349414260453502	0.0	3.1664585226677135	1.3357710544645758	0.0	3.1679199389808144	1.3183466142744227	0.0	3.1663012556893277	1.2975184237036625	0.0	3.1686742018513265	1.3372771099337937	0.0	3.1730874350871208	1.3183884616941663	0.0	3.1676499399701377	1.2962981936355185	0.0
78	2.6	3.169542158620239	1.2995478814469872	0.0	3.1674363611604583	1.29863871128861	0.0	3.172339822989771	1.2705257643668788	0.0	3.1777062299488588	1.240807902467185	0.0	3.1639232672357886	1.2333316801767515	0.0	3.1607223894046608	1.2350509457745797	0.0	3.1810938012283017	1.2361466595639816	0.0	3.171663880679334	1.298790533454977	0.0	3.1715796328916683	1.270219953238908	0.0	3.176847152459842	1.2400623288153243	0.0	3.16303135067823	1.2338123651958337	0.0	3.1664517972720345	1.2355283278956866	0.0	3.182286904964546	1.2378326528713268	0.0	3.166096257735268	1.3422202871646491	0.0	3.1600934829434313	1.3629807771074343	0.0	3.1573006290882613	1.3495327626098992	0.0	3.166979888665396	1.33644149023579	0.0	3.167313446211338	1.3184867814239125	0.0	3.1648885414785277	1.298052903128534	0.0	3.16905899315962	1.3386106773361846	0.0	3.1732724780048835	1.3184790103603166	0.0	3.1676420961396974	1.2956927300608545	0.0
79	2.6333333333333333	3.1700933442456125	1.299459028158964	0.0	3.1676471333906306	1.2984947672222613	0.0	3.17339202873837	1.270592829705049	0.0	3.178496676375304	1.2404210756747973	0.0	3.1652489414750065	1.2328242146876296	0.0	3.1606979727735536	1.2344832033947128	0.0	3.181491084672368	1.2355202028058323	0.0	3.1724281787003563	1.298557523538294	0.0	3.1712586453373373	1.2703564986230136	0.0	3.1766128244436054	1.2400590589096727	0.0	3.1620928597015365	1.233916536917053	0.0	3.166468938744437	1.2356437517502104	0.0	3.1824753021031738	1.2380299290444583	0.0	3.166099716994924	1.3430176024130422	0.0	3.160724064918573	1.3632775797441639	0.0	3.1574733496883973	1.3498824841815062	0.0	3.1669891210832857	1.3374189027723233	0.0	3.16613664682104	1.3188728654503872	0.0	3.1625996509495886	1.2987953485708184	0.0	3.1695098229828202	1.3401594761245235	0.0	3.173280953126145	1.3187106372164565	0.0	3.1678122377304736	1.2951847294870065	0.0
80	2.6666666666666665	3.170294186434011	1.2994419018905274	0.0	3.1675852644889337	1.2984514700953147	0.0	3.173881113953173	1.2706215198067945	0.0	3.1788057478121825	1.2402547080621804	0.0	3.165809246326172	1.2325854516120074	0.0	3.1607534501920393	1.2342274297703215	0.0	3.18156435771088	1.23524264805632	0.0	3.1727605467941364	1.2984278688649094	0.0	3.171063189512686	1.270425617685207	0.0	3.176411929022758	1.240103516674897	0.0	3.161616014351115	1.233937204553358	0.0	3.1664822862588946	1.2356127264044603	0.0	3.182538822438048	1.2381505123186023	0.0	3.166007295942976	1.3434250452679708	0.0	3.1610237623469004	1.3633941371911285	0.0	3.157532665972966	1.3500112137504083	0.0	3.1668120325569498	1.3379123174509682	0.0	3.1653081677320114	1.3190573186800654	0.0	3.1610908755914826	1.2992230072626128	0.0	3.1697531592979136	1.3409371102135552	0.0	3.1732701869960764	1.3188098651172597	0.0	3.1680706239559995	1.2949113395975387	0.0
81	2.7	3.1702798913397117	1.299446258599806	0.0	3.167505322639798	1.2984539424933892	0.0	3.1739421006890547	1.2706305483987859	0.0	3.1788214540117594	1.2402575357608838	0.0	3.1658386189551617	1.232565596625755	0.0	3.1608072383452033	1.2342107291743527	0.0	3.1815217341372977	1.2352444196569845	0.0	3.1727726592227614	1.2984026860698192	0.0	3.1710202506693728	1.2704443572735373	0.0	3.176335783587545	1.2401353481259183	0.0	3.1615323534449336	1.2339326547524576	0.0	3.1664838619940467	1.2355786597668639	0.0	3.182513998421043	1.2381888305005475	0.0	3.1659544410338394	1.3434570268094053	0.0	3.1610443154496792	1.3633671570497365	0.0	3.1575338387880505	1.3499847233529774	0.0	3.166726130435203	1.3379536827603888	0.0	3.165113837675053	1.3190638535315633	0.0	3.160771975295731	1.299296897268406	0.0	3.169785915313065	1.341010428139739	0.0	3.1732693498725637	1.3188064762524006	0.0	3.168186476747693	1.2948690181676712	0.0
82	2.7333333333333334	3.1702352861515073	1.299451237297648	0.0	3.1674879046575364	1.298463349322399	0.0	3.173868876126167	1.2706282785400083	0.0	3.178766747985751	1.2402911694818823	0.0	3.165739761103716	1.23260502335427	0.0	3.160816251003168	1.234254652237387	0.0	3.181491648338627	1.2352994299259201	0.0	3.1727120578922694	1.298418781586187	0.0	3.171042651645989	1.2704377585186017	0.0	3.1763469793626378	1.2401384181122121	0.0	3.1615947903670745	1.2339269390057672	0.0	3.166481831493635	1.2355721449665318	0.0	3.18249238744728	1.2381793888915522	0.0	3.165953009849748	1.3433890785399583	0.0	3.160993231675563	1.3633343796797512	0.0	3.1575226585999987	1.349949741608013	0.0	3.166729068371021	1.3378723674962525	0.0	3.1652042498068322	1.319030165189004	0.0	3.1609495623188364	1.299240482658019	0.0	3.169750373508153	1.3408852651298901	0.0	3.1732711485464438	1.3187858103218608	0.0	3.1681786921460056	1.2949069279665257	0.0
83	2.7666666666666666	3.1702215879376476	1.299452122885161	0.0	3.1674971008527275	1.2984662620374336	0.0	3.1738298725446374	1.2706256322931602	0.0	3.1787434374288686	1.2403030104165376	0.0	3.165697486658586	1.2326234337730055	0.0	3.1608090789537826	1.2342741127908967	0.0	3.1814888558760965	1.2353194006078703	0.0	3.172687243203992	1.2984295831805317	0.0	3.171059351553478	1.270431614347448	0.0	3.176366041891756	1.2401332808027827	0.0	3.1616342903770187	1.2339256644778063	0.0	3.1664807740989853	1.235576406136381	0.0	3.1824892644223475	1.2381683742077318	0.0	3.1659628395511406	1.3433576015624005	0.0	3.160970311273372	1.3633274442504064	0.0	3.157518294996923	1.3499419079152046	0.0	3.1667470008679848	1.3378341105960312	0.0	3.165275757915578	1.3190163365090082	0.0	3.1610776967864145	1.2992050637093768	0.0	3.169730819634159	1.3408245757668857	0.0	3.173271989957007	1.318778754223321	0.0	3.1681531419088897	1.2949291576584534	0.0
